HIERARCHY
ROOT Hips
{
  OFFSET 51.9666 84.374 9.07797
  CHANNELS 6 Xposition Yposition Zposition Zrotation Xrotation Yrotation
  JOINT spine
  {
    OFFSET 0 5.95438 0.342407
    CHANNELS 3 Zrotation Xrotation Yrotation
    JOINT spine1
    {
      OFFSET 0 8.85602 0
      CHANNELS 3 Zrotation Xrotation Yrotation
      JOINT spine2
      {
        OFFSET 0 8.48567 0
        CHANNELS 3 Zrotation Xrotation Yrotation
        JOINT Neck
        {
          OFFSET 0 21.7863 1.0387
          CHANNELS 3 Zrotation Xrotation Yrotation
          JOINT Head
          {
            OFFSET 0 6.5822 0
            CHANNELS 3 Zrotation Xrotation Yrotation
            End Site
            {
              OFFSET 0 15.9326 -5.25436
            }
          }
        }
        JOINT RightShoulder
        {
          OFFSET -3.57307 9.16386 -0.497525
          CHANNELS 3 Zrotation Xrotation Yrotation
          JOINT RightArm
          {
            OFFSET 0 12.0192 0
            CHANNELS 3 Zrotation Xrotation Yrotation
            JOINT RightArmRoll
            {
              OFFSET 0 6.06754 0
              CHANNELS 3 Zrotation Xrotation Yrotation
              JOINT RightForeArm
              {
                OFFSET 0 17.6726 0
                CHANNELS 3 Zrotation Xrotation Yrotation
                JOINT RightForeArmRoll
                {
                  OFFSET 0 6.80872 0
                  CHANNELS 3 Zrotation Xrotation Yrotation
                  JOINT RightHand
                  {
                    OFFSET 0 13.6636 0
                    CHANNELS 3 Zrotation Xrotation Yrotation
                    End Site
                    {
                      OFFSET 0 0 0
                    }
                  }
                }
              }
            }
          }
        }
        JOINT LeftShoulder
        {
          OFFSET 3.57307 9.16386 -0.497525
          CHANNELS 3 Zrotation Xrotation Yrotation
          JOINT LeftArm
          {
            OFFSET 0 12.0192 0
            CHANNELS 3 Zrotation Xrotation Yrotation
            JOINT LeftArmRoll
            {
              OFFSET 0 6.06755 0
              CHANNELS 3 Zrotation Xrotation Yrotation
              JOINT LeftForeArm
              {
                OFFSET 0 17.6726 0
                CHANNELS 3 Zrotation Xrotation Yrotation
                JOINT LeftForeArmRoll
                {
                  OFFSET 0 6.80872 0
                  CHANNELS 3 Zrotation Xrotation Yrotation
                  JOINT LeftHand
                  {
                    OFFSET 0 13.6636 0
                    CHANNELS 3 Zrotation Xrotation Yrotation
                    End Site
                    {
                      OFFSET 0 0 0
                    }
                  }
                }
              }
            }
          }
        }
      }
    }
  }
  JOINT RightUpLeg
  {
    OFFSET -5.27774 -0.967797 -0.811858
    CHANNELS 3 Zrotation Xrotation Yrotation
    JOINT RightUpLegRoll
    {
      OFFSET 0 16.0214 0
      CHANNELS 3 Zrotation Xrotation Yrotation
      JOINT RightLeg
      {
        OFFSET 0 -19.8401 0
        CHANNELS 3 Zrotation Xrotation Yrotation
        JOINT RightLegRoll
        {
          OFFSET 0 19.905 0
          CHANNELS 3 Zrotation Xrotation Yrotation
          JOINT RightFoot
          {
            OFFSET 0 16.5675 0
            CHANNELS 3 Zrotation Xrotation Yrotation
            JOINT RightToeBase
            {
              OFFSET 0 13.8496 0
              CHANNELS 3 Zrotation Xrotation Yrotation
              End Site
              {
                OFFSET 0.00587034 6.70728 -0.773117
              }
            }
          }
        }
      }
    }
  }
  JOINT LeftUpLeg
  {
    OFFSET 5.27774 -0.967797 -0.811858
    CHANNELS 3 Zrotation Xrotation Yrotation
    JOINT LeftUpLegRoll
    {
      OFFSET 0 16.0215 0
      CHANNELS 3 Zrotation Xrotation Yrotation
      JOINT LeftLeg
      {
        OFFSET 0 19.84 0
        CHANNELS 3 Zrotation Xrotation Yrotation
        JOINT LeftLegRoll
        {
          OFFSET 0 20.089 0
          CHANNELS 3 Zrotation Xrotation Yrotation
          JOINT LeftFoot
          {
            OFFSET 0 16.3835 0
            CHANNELS 3 Zrotation Xrotation Yrotation
            JOINT LeftToeBase
            {
              OFFSET 0 13.8496 0
              CHANNELS 3 Zrotation Xrotation Yrotation
              End Site
              {
                OFFSET -0.0263083 6.70728 -0.773117
              }
            }
          }
        }
      }
    }
  }
}
MOTION
Frames: 13
Frame Time: 0.00208333
51.692 84.5123 6.74611 -1.71042 -10.5983 -4.88747 0.513516 -0.186736 0.077322 1.02838 3.62954 0.0901149 1.02876 5.27446 0.0696786 -5.76518 15.388 0.889975 7.41118 4.75524 -0.875496 74.9679 0.754413 -1.45735 102.1 13.2368 -2.03818 -2.79946e-007 6.5547e-009 6.44878e-008 -3.63802 -0.0278783 -1.99255 1.63879e-006 -1.88281e-006 -3.01159 8.03008 -4.95136 0.697625 -70.1885 -2.92168 2.71094 -112.581 16.5527 11.7827 -3.7992e-006 8.89396e-008 9.44339e-007 3.63917 -0.0277042 1.99262 1.27749e-005 -3.07355e-006 3.0116 -8.03011 -4.95138 -0.697633 -179.48 -4.05208 3.30826 180 7.01518e-015 178.805 177.065 9.73766 179.916 4.21075e-006 4.10909e-006 0.134616 -18.9518 68.4033 19.8748 8.13649 25.2327 -3.48774 -178.215 -4.6894 -1.05204 4.54188e-006 -4.6773e-006 -1.1927 -2.31 -10.861 0.0736153 -4.93397e-006 1.252e-006 -0.187801 20.0794 69.7683 -21.1079 -8.13649 25.2327 3.48774 
51.6708 84.5128 6.77594 -1.71321 -10.6093 -4.89443 0.513099 -0.183597 0.077117 1.02755 3.63582 0.0897611 1.02793 5.28074 0.0696827 -5.73731 15.3751 0.879578 7.39132 4.75375 -0.876049 74.9759 0.741706 -1.46387 102.065 13.2263 -2.00403 -2.79946e-007 6.5547e-009 6.44878e-008 -3.63802 -0.0278783 -1.99255 1.63879e-006 -1.88281e-006 -3.01159 8.03008 -4.95136 0.697625 -70.1671 -2.92012 2.70844 -112.598 16.5368 11.7924 -3.7992e-006 8.89396e-008 9.44339e-007 3.63917 -0.0277042 1.99262 1.27749e-005 -3.07355e-006 3.0116 -8.03011 -4.95138 -0.697633 -179.479 -4.06679 3.30943 180 7.01518e-015 178.805 177.066 9.73394 179.915 4.21075e-006 4.10909e-006 0.134616 -18.9505 68.4019 19.8735 8.13649 25.2327 -3.48774 -178.213 -4.7012 -1.05308 4.54188e-006 -4.6773e-006 -1.1927 -2.30898 -10.8658 0.0736653 -4.93397e-006 1.252e-006 -0.187801 20.0849 69.7738 -21.1138 -8.13649 25.2327 3.48774 
51.6749 84.5122 6.77105 -1.71636 -10.6209 -4.90144 0.512681 -0.180324 0.0769139 1.02672 3.64236 0.0894051 1.0271 5.28729 0.0697014 -5.70793 15.3625 0.868771 7.37005 4.75227 -0.876541 74.985 0.729818 -1.47016 102.031 13.2155 -1.97003 -2.79946e-007 6.5547e-009 6.44878e-008 -3.63802 -0.0278783 -1.99255 1.63879e-006 -1.88281e-006 -3.01159 8.03008 -4.95136 0.697625 -70.1444 -2.91848 2.7058 -112.615 16.5207 11.8029 -3.7992e-006 8.89396e-008 9.44339e-007 3.63917 -0.0277042 1.99262 1.27749e-005 -3.07355e-006 3.0116 -8.03011 -4.95138 -0.697633 -179.478 -4.08284 3.31034 180 7.01518e-015 178.805 177.068 9.72927 179.914 4.21075e-006 4.10909e-006 0.134616 -18.9491 68.4003 19.872 8.13649 25.2327 -3.48774 -178.212 -4.71363 -1.05428 4.54188e-006 -4.6773e-006 -1.1927 -2.30782 -10.871 0.0737504 -4.93397e-006 1.252e-006 -0.187801 20.0907 69.7796 -21.1199 -8.13649 25.2327 3.48774 
51.6665 84.5138 6.78452 -1.71975 -10.6331 -4.90847 0.512261 -0.176958 0.0767123 1.02588 3.6491 0.0890476 1.02627 5.29402 0.0697301 -5.6775 15.3501 0.857677 7.34778 4.7508 -0.876992 74.9951 0.718502 -1.4763 101.996 13.2046 -1.93614 -2.79946e-007 6.5547e-009 6.44878e-008 -3.63802 -0.0278783 -1.99255 1.63879e-006 -1.88281e-006 -3.01159 8.03008 -4.95136 0.697625 -70.1207 -2.91679 2.70306 -112.634 16.5045 11.8141 -3.7992e-006 8.89396e-008 9.44339e-007 3.63917 -0.0277042 1.99262 1.27749e-005 -3.07355e-006 3.0116 -8.03011 -4.95138 -0.697633 -179.476 -4.09984 3.31109 180 7.01518e-015 178.805 177.069 9.72387 179.913 4.21075e-006 4.10909e-006 0.134616 -18.9476 68.3985 19.8703 8.13649 25.2327 -3.48774 -178.21 -4.72649 -1.05559 4.54188e-006 -4.6773e-006 -1.1927 -2.30658 -10.8764 0.07386 -4.93397e-006 1.252e-006 -0.187801 20.0966 69.7856 -21.1262 -8.13649 25.2327 3.48774 
51.6633 84.5128 6.79114 -1.72329 -10.6455 -4.91553 0.511842 -0.173538 0.0765115 1.02504 3.65594 0.0886893 1.02544 5.30086 0.0697646 -5.64647 15.3378 0.846419 7.32495 4.74933 -0.877418 75.0057 0.707513 -1.48235 101.962 13.1936 -1.90232 -2.79946e-007 6.5547e-009 6.44878e-008 -3.63802 -0.0278783 -1.99255 1.63879e-006 -1.88281e-006 -3.01159 8.03008 -4.95136 0.697625 -70.0966 -2.91506 2.70026 -112.652 16.4882 11.8257 -3.7992e-006 8.89396e-008 9.44339e-007 3.63917 -0.0277042 1.99262 1.27749e-005 -3.07355e-006 3.0116 -8.03011 -4.95138 -0.697633 -179.475 -4.11739 3.31173 180 7.01518e-015 178.805 177.071 9.71811 179.912 4.21075e-006 4.10909e-006 0.134616 -18.946 68.3967 19.8686 8.13649 25.2327 -3.48774 -178.209 -4.7396 -1.05695 4.54188e-006 -4.6773e-006 -1.1927 -2.30529 -10.882 0.0739836 -4.93397e-006 1.252e-006 -0.187801 20.1027 69.7917 -21.1327 -8.13649 25.2327 3.48774 
51.6651 84.5177 6.7895 -1.72687 -10.6579 -4.92258 0.511422 -0.170104 0.0763108 1.02421 3.6628 0.0883308 1.02461 5.30773 0.0698005 -5.61529 15.3255 0.835122 7.30198 4.74786 -0.877839 75.0163 0.696606 -1.48838 101.928 13.1826 -1.86851 -2.79946e-007 6.5547e-009 6.44878e-008 -3.63802 -0.0278783 -1.99255 1.63879e-006 -1.88281e-006 -3.01159 8.03008 -4.95136 0.697625 -70.0724 -2.91333 2.69745 -112.671 16.4718 11.8373 -3.7992e-006 8.89396e-008 9.44339e-007 3.63917 -0.0277042 1.99262 1.27749e-005 -3.07355e-006 3.0116 -8.03011 -4.95138 -0.697633 -179.473 -4.13507 3.31235 180 7.01518e-015 178.805 177.072 9.71224 179.912 4.21075e-006 4.10909e-006 0.134616 -18.9444 68.3949 19.8669 8.13649 25.2327 -3.48774 -178.207 -4.75277 -1.05834 4.54188e-006 -4.6773e-006 -1.1927 -2.30399 -10.8875 0.0741107 -4.93397e-006 1.252e-006 -0.187801 20.1087 69.7978 -21.1391 -8.13649 25.2327 3.48774 
51.6636 84.5116 6.79334 -1.73038 -10.6703 -4.92963 0.511003 -0.166698 0.0761098 1.02337 3.66962 0.0879727 1.02377 5.31454 0.0698335 -5.58441 15.3131 0.823908 7.27929 4.74639 -0.878271 75.0267 0.685535 -1.49445 101.894 13.1716 -1.83467 -2.79946e-007 6.5547e-009 6.44878e-008 -3.63802 -0.0278783 -1.99255 1.63879e-006 -1.88281e-006 -3.01159 8.03008 -4.95136 0.697625 -70.0484 -2.91162 2.69467 -112.69 16.4555 11.8488 -3.7992e-006 8.89396e-008 9.44339e-007 3.63917 -0.0277042 1.99262 1.27749e-005 -3.07355e-006 3.0116 -8.03011 -4.95138 -0.697633 -179.471 -4.15248 3.31302 180 7.01518e-015 178.805 177.074 9.70656 179.911 4.21075e-006 4.10909e-006 0.134616 -18.9429 68.3931 19.8652 8.13649 25.2327 -3.48774 -178.205 -4.76582 -1.05969 4.54188e-006 -4.6773e-006 -1.1927 -2.30271 -10.893 0.0742309 -4.93397e-006 1.252e-006 -0.187801 20.1147 69.8039 -21.1456 -8.13649 25.2327 3.48774 
51.6729 84.5122 6.78193 -1.73371 -10.6823 -4.93666 0.510584 -0.163358 0.0759078 1.02253 3.6763 0.0876156 1.02294 5.32123 0.0698594 -5.5543 15.3006 0.812902 7.25731 4.74492 -0.878734 75.0365 0.674055 -1.50063 101.859 13.1607 -1.80077 -2.79946e-007 6.55469e-009 6.44878e-008 -3.63802 -0.0278783 -1.99255 1.63879e-006 -1.88281e-006 -3.01159 8.03008 -4.95136 0.697625 -70.025 -2.90994 2.69196 -112.708 16.4394 11.8598 -3.7992e-006 8.89396e-008 9.44339e-007 3.63917 -0.0277042 1.99262 1.27749e-005 -3.07355e-006 3.0116 -8.03011 -4.95138 -0.697633 -179.47 -4.16921 3.31382 180 7.01518e-015 178.805 177.075 9.70137 179.91 4.21075e-006 4.10909e-006 0.134616 -18.9414 68.3913 19.8636 8.13649 25.2327 -3.48774 -178.204 -4.77856 -1.06096 4.54188e-006 -4.6773e-006 -1.1927 -2.30149 -10.8984 0.0743335 -4.93397e-006 1.252e-006 -0.187801 20.1207 69.8098 -21.1518 -8.13649 25.2327 3.48774 
51.6681 84.5214 6.79255 -1.73677 -10.6937 -4.94366 0.510166 -0.160126 0.0757041 1.0217 3.68276 0.0872603 1.02211 5.32769 0.0698737 -5.52541 15.2879 0.802226 7.23646 4.74344 -0.879244 75.0453 0.661922 -1.50699 101.825 13.15 -1.76674 -2.79946e-007 6.5547e-009 6.44878e-008 -3.63802 -0.0278783 -1.99255 1.63879e-006 -1.88281e-006 -3.01159 8.03008 -4.95136 0.697625 -70.0027 -2.90833 2.68936 -112.725 16.4234 11.8701 -3.7992e-006 8.89396e-008 9.44339e-007 3.63917 -0.0277042 1.99262 1.27749e-005 -3.07355e-006 3.0116 -8.03011 -4.95138 -0.697633 -179.468 -4.18486 3.31481 180 7.01518e-015 178.805 177.077 9.69698 179.909 4.21075e-006 4.10909e-006 0.134616 -18.94 68.3898 19.8622 8.13649 25.2327 -3.48774 -178.202 -4.7908 -1.06212 4.54188e-006 -4.6773e-006 -1.1927 -2.30038 -10.9035 0.074408 -4.93397e-006 1.252e-006 -0.187801 20.1264 69.8155 -21.1579 -8.13649 25.2327 3.48774 
51.6716 84.5162 6.79117 -1.73944 -10.7044 -4.95061 0.509749 -0.15704 0.0754983 1.02087 3.68893 0.0869072 1.02128 5.33386 0.0698721 -5.49819 15.2749 0.792005 7.21716 4.74195 -0.879821 75.0528 0.648888 -1.5136 101.79 13.1395 -1.73256 -2.79946e-007 6.5547e-009 6.44878e-008 -3.63802 -0.0278783 -1.99255 1.63879e-006 -1.88281e-006 -3.01159 8.03008 -4.95136 0.697625 -69.9817 -2.90679 2.68691 -112.741 16.4076 11.8794 -3.7992e-006 8.89396e-008 9.44339e-007 3.63917 -0.0277042 1.99262 1.27749e-005 -3.07355e-006 3.0116 -8.03011 -4.95138 -0.697633 -179.468 -4.19902 3.31608 180 7.01518e-015 178.805 177.077 9.69367 179.908 4.21075e-006 4.10909e-006 0.134616 -18.9389 68.3884 19.8609 8.13649 25.2327 -3.48774 -178.201 -4.80235 -1.0631 4.54188e-006 -4.6773e-006 -1.1927 -2.29941 -10.9082 0.0744441 -4.93397e-006 1.252e-006 -0.187801 20.1318 69.821 -21.1637 -8.13649 25.2327 3.48774 
51.6687 84.5204 6.79378 -1.74163 -10.7142 -4.95751 0.509334 -0.154143 0.0752896 1.02004 3.69473 0.0865571 1.02046 5.33966 0.0698503 -5.47309 15.2616 0.782363 7.19985 4.74046 -0.880482 75.0585 0.63471 -1.52053 101.754 13.1293 -1.69816 -2.79946e-007 6.5547e-009 6.44878e-008 -3.63802 -0.0278783 -1.99255 1.63879e-006 -1.88281e-006 -3.01159 8.03008 -4.95136 0.697625 -69.9626 -2.90537 2.68467 -112.756 16.3922 11.8874 -3.7992e-006 8.89396e-008 9.44339e-007 3.63917 -0.0277042 1.99262 1.27749e-005 -3.07355e-006 3.0116 -8.03011 -4.95138 -0.697633 -179.468 -4.21128 3.31769 180 7.01518e-015 178.805 177.078 9.69173 179.908 4.21075e-006 4.10909e-006 0.134616 -18.9379 68.3874 19.8599 8.13649 25.2327 -3.48774 -178.201 -4.81303 -1.06388 4.54188e-006 -4.6773e-006 -1.1927 -2.29861 -10.9125 0.074431 -4.93397e-006 1.252e-006 -0.187801 20.1369 69.8261 -21.1691 -8.13649 25.2327 3.48774 
51.6735 84.5198 6.79158 -1.74322 -10.7228 -4.96434 0.50892 -0.151473 0.0750775 1.01921 3.70007 0.0862106 1.01963 5.345 0.069804 -5.45057 15.2478 0.773421 7.18494 4.73895 -0.881245 75.062 0.619142 -1.52783 101.719 13.1195 -1.66352 -2.79946e-007 6.5547e-009 6.44878e-008 -3.63802 -0.0278783 -1.99255 1.63879e-006 -1.88281e-006 -3.01159 8.03008 -4.95136 0.697625 -69.9456 -2.90407 2.68266 -112.768 16.3771 11.8939 -3.7992e-006 8.89396e-008 9.44339e-007 3.63917 -0.0277042 1.99262 1.27749e-005 -3.07355e-006 3.0116 -8.03011 -4.95138 -0.697633 -179.469 -4.22125 3.31972 180 7.01518e-015 178.805 177.078 9.69149 179.907 4.21075e-006 4.10909e-006 0.134616 -18.9373 68.3866 19.8592 8.13649 25.2327 -3.48774 -178.201 -4.82266 -1.06439 4.54188e-006 -4.6773e-006 -1.1927 -2.29803 -10.9162 0.0743584 -4.93397e-006 1.252e-006 -0.187801 20.1416 69.8307 -21.1741 -8.13649 25.2327 3.48774 
51.6688 84.5187 6.79691 -1.7441 -10.73 -4.97109 0.508508 -0.14907 0.0748614 1.01839 3.70487 0.0858683 1.01882 5.3498 0.0697288 -5.43108 15.2334 0.765305 7.17285 4.73743 -0.882127 75.0631 0.601938 -1.53559 101.683 13.1101 -1.62858 -2.79946e-007 6.5547e-009 6.44878e-008 -3.63802 -0.0278783 -1.99255 1.63879e-006 -1.88281e-006 -3.01159 8.03008 -4.95136 0.697625 -69.9312 -2.90292 2.68093 -112.779 16.3625 11.8986 -3.7992e-006 8.89396e-008 9.44339e-007 3.63917 -0.0277042 1.99262 1.27749e-005 -3.07355e-006 3.0116 -8.03011 -4.95138 -0.697633 -179.471 -4.22851 3.32224 180 7.01518e-015 178.805 177.077 9.69318 179.907 4.21075e-006 4.10909e-006 0.134616 -18.9369 68.3862 19.8589 8.13649 25.2327 -3.48774 -178.202 -4.83104 -1.0646 4.54188e-006 -4.6773e-006 -1.1927 -2.29771 -10.9193 0.0742157 -4.93397e-006 1.252e-006 -0.187801 20.1457 69.8349 -21.1786 -8.13649 25.2327 3.48774 
